<svg width="66" height="77" viewBox="0 0 66 77" fill="none" xmlns="http://www.w3.org/2000/svg">
<g clip-path="url(#clip0_55_149)">
<path d="M15.5493 18.0087C20.0298 18.0087 23.662 14.3917 23.662 9.93001C23.662 5.46827 20.0298 1.85132 15.5493 1.85132C11.0688 1.85132 7.43661 5.46827 7.43661 9.93001C7.43661 14.3917 11.0688 18.0087 15.5493 18.0087Z" fill="white" stroke="#0069F7" stroke-width="3" stroke-miterlimit="10"/>
<path d="M7.85915 49.8185C7.85915 49.8185 2.70422 47.0414 1.85915 44.0961C1.01408 41.1507 1.1831 32.7354 1.35211 29.9584C1.52112 27.1813 2.11267 24.5726 3.97183 23.142C5.91549 21.6272 7.43662 21.1223 9.04225 21.1223C10.6479 21.1223 18.2535 21.1223 20.0282 21.1223C21.8028 21.1223 23.662 21.1223 25.1831 21.9638C26.7042 22.8054 27.8873 23.9835 28.9014 26.3398C29.9155 28.6119 29.831 36.6065 29.9155 39.636C30 42.6655 29.7465 44.5169 28.9014 45.7791C28.1408 47.0414 26.7887 48.1354 25.6056 48.8928C24.4225 49.6502 22.9859 49.9026 22.9859 49.9026C22.9859 49.9026 23.1549 67.154 23.1549 70.6043C23.1549 73.4655 20.8732 75.7376 18 75.7376H12.7606C9.88732 75.7376 7.60563 73.3813 7.60563 70.5201L7.85915 49.8185Z" fill="white" stroke="#0069F7" stroke-width="3" stroke-miterlimit="10"/>
<path d="M7.85916 29.2852V49.8185" stroke="#0069F7" stroke-width="3" stroke-miterlimit="10"/>
<path d="M23.0704 29.2852V49.8185" stroke="#0069F7" stroke-width="3" stroke-miterlimit="10"/>
<path d="M15.7183 51.5857V75.7376" stroke="#0069F7" stroke-width="3" stroke-miterlimit="10"/>
<path d="M49.7746 17.4196C54.2552 17.4196 57.8873 13.8026 57.8873 9.3409C57.8873 4.87916 54.2552 1.26221 49.7746 1.26221C45.2941 1.26221 41.662 4.87916 41.662 9.3409C41.662 13.8026 45.2941 17.4196 49.7746 17.4196Z" fill="white" stroke="#0069F7" stroke-width="3" stroke-miterlimit="10"/>
<path d="M42.0845 49.2296C42.0845 49.2296 36.9296 46.4526 36.0845 43.5072C35.2394 40.5619 35.493 32.1466 35.5775 29.3695C35.7465 26.5925 36.338 23.9837 38.1972 22.5531C40.1408 21.0384 41.662 20.5334 43.2676 20.5334C44.8732 20.5334 52.4789 20.5334 54.2535 20.5334C56.0282 20.5334 57.8873 20.5334 59.4085 21.375C60.9296 22.2165 62.1127 23.3947 63.1268 25.7509C64.1408 28.0231 64.0563 36.0176 64.1408 39.0471C64.2254 42.0766 63.9718 43.928 63.1268 45.1903C62.3662 46.4526 61.0141 47.5466 59.831 48.3039C58.6479 49.0613 57.2113 49.3138 57.2113 49.3138C57.2113 49.3138 57.4648 66.5651 57.4648 70.0154C57.4648 72.8766 55.1831 75.1488 52.3099 75.1488H47.0704C44.1972 75.1488 41.831 72.7925 41.9155 69.9313L42.0845 49.2296Z" fill="white" stroke="#0069F7" stroke-width="3" stroke-miterlimit="10"/>
<path d="M42.0845 28.6963V49.2296" stroke="#0069F7" stroke-width="3" stroke-miterlimit="10"/>
<path d="M57.2958 28.6963V49.2296" stroke="#0069F7" stroke-width="3" stroke-miterlimit="10"/>
<path d="M49.9437 50.9968V75.1487" stroke="#0069F7" stroke-width="3" stroke-miterlimit="10"/>
<path d="M57.2958 41.3191L64.2254 62.1049H35.493L42.338 41.4032L57.2958 41.3191Z" fill="white" stroke="#0069F7" stroke-width="3" stroke-miterlimit="10"/>
</g>
<defs>
<clipPath id="clip0_55_149">
<rect width="66" height="77" fill="white"/>
</clipPath>
</defs>
</svg>
