<svg width="11" height="22" viewBox="0 0 11 22" fill="none" xmlns="http://www.w3.org/2000/svg">
<path d="M10.7043 0C10.9409 0.127536 11.0591 0.318841 11.0591 0.573913C11.0591 1.5942 11.0591 2.61449 11.0591 3.63478C11.0591 4.08116 10.9409 4.2087 10.5269 4.2087C9.87634 4.2087 9.16667 4.2087 8.51613 4.27246C8.16129 4.27246 7.80645 4.4 7.62903 4.78261C7.56989 4.97391 7.45161 5.16522 7.45161 5.42029C7.45161 6.24928 7.45161 7.07826 7.45161 7.90725C7.51075 7.90725 7.56989 7.90725 7.68817 7.90725C8.57527 7.90725 9.5215 7.90725 10.4086 7.90725C10.8226 7.90725 10.9409 8.03478 10.9409 8.48116C10.9409 9.62899 10.9409 10.713 10.9409 11.8609C10.9409 12.3072 10.8226 12.4348 10.4086 12.4348C9.5215 12.4348 8.57527 12.4348 7.68817 12.4348C7.62903 12.4348 7.56989 12.4348 7.45161 12.4348C7.45161 12.5623 7.45161 12.6261 7.45161 12.6899C7.45161 15.5594 7.45161 18.429 7.45161 21.3623C7.45161 21.8725 7.33333 22 6.86021 22C5.7957 22 4.79032 22 3.72581 22C3.31183 22 3.19355 21.8725 3.19355 21.4261C3.19355 18.5565 3.19355 15.6232 3.19355 12.7536C3.19355 12.6899 3.19355 12.5623 3.19355 12.4986C3.13441 12.4986 3.01613 12.4986 2.95699 12.4986C2.18817 12.4986 1.41935 12.4986 0.650537 12.4986C0.295698 12.4986 0.118279 12.371 0.118279 11.9246C0.118279 10.7768 0.118279 9.69275 0.118279 8.54493C0.118279 8.16232 0.295698 7.97101 0.650537 7.97101C1.41935 7.97101 2.18817 7.97101 2.95699 7.97101C3.01613 7.97101 3.07527 7.97101 3.19355 7.97101C3.19355 7.90725 3.19355 7.77971 3.19355 7.71594C3.19355 6.82319 3.19355 5.93044 3.19355 5.03768C3.25269 3.76232 3.60753 2.61449 4.37634 1.65797C5.02688 0.828986 5.85484 0.382609 6.86021 0.191304C7.09677 0.127536 7.33333 0.127536 7.56989 0.0637681C8.51613 0 9.63978 0 10.7043 0Z" fill="#F14B00"/>
</svg>
