<svg width="82" height="80" viewBox="0 0 82 80" fill="none" xmlns="http://www.w3.org/2000/svg">
<g clip-path="url(#clip0_55_76)">
<path d="M44.7126 78.7057C64.5927 78.7057 80.7086 62.5535 80.7086 42.6288C80.7086 22.7042 64.5927 6.552 44.7126 6.552C24.8325 6.552 8.71652 22.7042 8.71652 42.6288C8.71652 62.5535 24.8325 78.7057 44.7126 78.7057Z" stroke="white" stroke-width="3" stroke-miterlimit="10"/>
<path d="M27.6831 2.42676C27.6831 2.42676 19.6929 8.73616 14.3662 10.6775C9.03938 12.6189 1.7756 17.1487 1.29135 23.0537C0.807099 28.9586 3.06694 33.812 5.97245 36.4005C8.87796 38.9889 14.5276 39.6361 18.8858 38.4227C23.2441 37.2094 31.315 30.5764 32.2835 23.2963C33.252 16.0162 32.2835 11.082 29.9429 7.84637C27.8445 5.01523 27.6831 2.42676 27.6831 2.42676Z" fill="white" stroke="#F14B00" stroke-width="3" stroke-miterlimit="10"/>
<path d="M20.3386 16.5825C20.3386 16.5825 15.7382 21.4359 12.8327 26.9364C10.0079 32.1942 9.03937 38.1801 9.03937 38.1801" stroke="#F14B00" stroke-width="3" stroke-miterlimit="10" stroke-linecap="round"/>
<path d="M67.311 14.4792L65.6161 16.6633C64.9705 17.4722 64.0827 17.9575 63.0335 17.9575H55.3661C53.5905 17.9575 52.2992 21.6784 51.4921 21.7593C50.685 21.8402 45.6004 21.0313 43.3405 22.9727C41.0807 24.914 39.5529 30.3614 40.3543 32.1941C40.974 33.6112 49.0709 31.9514 51.9764 32.1941C54.8819 32.4368 55.5275 33.8928 57.626 37.2093C59.7244 40.4449 64.1634 41.9818 66.746 41.9818C69.3287 41.9818 68.7638 39.7169 70.9429 39.9595C73.122 40.2022 74.0905 43.3569 75.2205 44.9747C76.2697 46.5925 80.8701 44.9747 80.8701 44.9747C80.8701 44.9747 81.1122 38.6653 80.063 34.8635C79.0138 31.0617 77.561 27.0172 76.3504 24.9949C75.1398 22.9727 73.3642 20.2224 71.4272 18.2002C69.4901 16.1779 67.311 14.4792 67.311 14.4792Z" fill="white"/>
<path d="M50.1201 65.5207C50.1201 66.2487 50.685 66.815 51.4114 66.815C52.8642 66.8958 55.3661 66.815 56.8189 65.4398C58.9173 63.3367 60.8543 60.182 61.5807 58.8069C62.3071 57.4317 62.6299 51.6886 62.1457 48.8574C61.455 44.8193 58.4748 41.0042 53.5412 39.518C50.775 38.6848 47.7795 39.0698 46.5689 39.0698C44.0669 39.0698 41.4035 41.6582 40.0315 43.8423C38.9823 45.5409 39.1437 48.2103 39.1437 49.8281C39.1437 50.3943 39.628 50.8797 40.1929 50.8797H46.4075C47.8602 50.8797 49.3937 52.2548 49.5551 53.6299C49.7972 54.6006 50.0394 62.5278 50.1201 65.5207Z" fill="white"/>
</g>
<defs>
<clipPath id="clip0_55_76">
<rect width="82" height="80" fill="white"/>
</clipPath>
</defs>
</svg>
