<svg width="20" height="20" viewBox="0 0 20 20" fill="none" xmlns="http://www.w3.org/2000/svg">
<path d="M20 20C18.6207 20 17.2414 20 15.8621 20C15.8621 19.8937 15.8621 19.7873 15.8621 19.6809C15.8621 17.5 15.8621 15.266 15.8621 13.0851C15.8621 12.5532 15.809 12.0213 15.7029 11.4894C15.4907 10.532 14.8541 10 13.8992 9.94685C13.1034 9.89366 12.4138 10.0532 11.8833 10.6915C11.565 11.1171 11.3528 11.649 11.2997 12.1809C11.2467 12.6064 11.2467 13.0851 11.2467 13.5107C11.2467 15.5851 11.2467 17.6064 11.2467 19.6809C11.2467 19.7873 11.2467 19.8405 11.2467 19.9468C9.86737 19.9468 8.48806 19.9468 7.10875 19.9468C7.10875 15.4788 7.10875 11.0639 7.10875 6.59578C8.43501 6.59578 9.70822 6.59578 11.0875 6.59578C11.0875 7.18089 11.0875 7.766 11.0875 8.3511H11.1406C11.1936 8.29791 11.1936 8.24472 11.2467 8.24472C11.9894 7.07451 13.0504 6.4894 14.3236 6.27664C15.2785 6.11706 16.1804 6.22344 17.0822 6.4894C18.3554 6.91493 19.1512 7.81919 19.5756 9.04259C19.8939 10 20 11.0107 20 11.9681C20 14.5213 20 17.0745 20 19.6277C20 19.8405 20 19.8937 20 20Z" fill="#F14B00"/>
<path d="M0.318306 20C0.318306 15.5319 0.318306 11.117 0.318306 6.64893C1.69762 6.64893 3.07693 6.64893 4.45624 6.64893C4.45624 11.117 4.45624 15.5319 4.45624 20C3.07693 20 1.75067 20 0.318306 20Z" fill="#F14B00"/>
<path d="M4.77454 2.39362C4.77454 3.7234 3.71353 4.78723 2.38727 4.78723C1.06101 4.78723 0 3.7234 0 2.39362C0 1.06383 1.06101 0 2.38727 0C3.71353 0 4.77454 1.06383 4.77454 2.39362Z" fill="#F14B00"/>
</svg>
