<svg width="135" height="44" viewBox="0 0 135 44" fill="none" xmlns="http://www.w3.org/2000/svg">
<path d="M90.0892 43.6181C90.0892 42.4791 90.0892 41.4741 90.0892 40.4691C90.0892 35.5779 90.0892 30.6868 90.0892 25.8627C90.0892 25.1257 90.2898 24.8576 91.0924 24.8576C94.1689 24.9246 97.1786 24.8576 100.255 24.8576C102.328 24.8576 103.198 25.5947 103.399 27.6717C103.532 29.1458 103.465 30.6198 103.399 32.0938C103.332 32.6968 102.997 33.3669 102.73 34.1039C103.733 34.7069 103.733 35.8459 103.666 36.985C103.666 38.191 103.666 39.397 103.666 40.6031C103.599 42.2111 102.596 43.5511 100.991 43.6181C97.3124 43.6851 93.7676 43.6181 90.0892 43.6181ZM94.3696 40.067C95.9079 40.067 97.3124 40.067 98.7169 40.067C98.9175 40.067 99.2519 39.732 99.3188 39.598C99.3857 38.392 99.3188 37.186 99.3188 35.9799C97.5799 35.9799 95.9747 35.9799 94.3696 35.9799C94.3696 37.32 94.3696 38.593 94.3696 40.067ZM94.3696 28.4757C94.3696 29.8828 94.3696 31.1558 94.3696 32.4288C95.9079 32.4288 97.4461 32.4288 98.9175 32.4288C98.9175 31.0888 98.9175 29.8158 98.9175 28.4757C97.3792 28.4757 95.9079 28.4757 94.3696 28.4757Z" fill="white"/>
<path d="M93.567 18.7605C92.0956 18.7605 90.758 18.7605 89.3535 18.7605C89.3535 12.5963 89.3535 6.43217 89.3535 0.134003C89.621 0.134003 89.8885 0.134003 90.2229 0.134003C93.5001 0.134003 96.7773 0.134003 100.055 0.134003C101.86 0.134003 102.73 0.938023 102.797 2.74707C102.864 5.36014 102.864 7.97321 102.797 10.6533C102.797 11.7923 102.328 12.7303 100.991 13.1993C101.593 15.0754 102.195 16.8844 102.864 18.8275C101.459 18.8275 100.188 18.8275 98.8506 18.8275C98.65 18.8275 98.3825 18.4255 98.3156 18.2245C97.8474 16.8174 97.3792 15.4104 96.978 14.0034C96.8442 13.4673 96.5767 13.3333 96.0416 13.3333C93.5001 13.2663 93.5001 13.2663 93.5001 15.8124C93.567 16.7504 93.567 17.6885 93.567 18.7605ZM98.5162 9.58125C98.5162 7.7052 98.5162 5.89615 98.5162 4.08711C96.8442 4.08711 95.239 4.08711 93.6339 4.08711C93.6339 5.96315 93.6339 7.7722 93.6339 9.58125C95.3059 9.58125 96.9111 9.58125 98.5162 9.58125Z" fill="white"/>
<path d="M134.967 31.1558C133.629 31.1558 132.291 31.1558 130.82 31.1558C130.82 30.3518 130.82 29.5478 130.82 28.7437C129.081 28.7437 127.476 28.7437 125.737 28.7437C125.737 29.4138 125.67 30.0838 125.737 30.6868C125.737 30.9548 126.071 31.2228 126.339 31.3568C128.479 32.1608 130.619 32.8979 132.759 33.7019C134.565 34.3719 134.967 34.9749 134.967 36.851C134.967 38.057 134.967 39.263 134.967 40.4691C134.9 42.5461 133.696 43.6851 131.622 43.6851C129.349 43.6851 127.141 43.6851 124.867 43.6851C122.794 43.6851 121.523 42.4121 121.457 40.3351C121.457 39.33 121.457 38.325 121.457 37.253C122.861 37.253 124.199 37.253 125.67 37.253C125.67 37.99 125.603 38.66 125.67 39.397C125.67 39.598 126.004 40 126.205 40C127.676 40.067 129.081 40 130.686 40C130.686 39.129 130.753 38.325 130.686 37.588C130.686 37.387 130.285 37.119 130.017 36.985C128.011 36.1809 126.004 35.5109 123.931 34.7069C121.858 33.9699 121.457 33.2999 121.457 31.1558C121.457 30.0168 121.457 28.9448 121.457 27.8057C121.523 26.1307 122.46 25.0587 124.132 24.9916C126.807 24.9246 129.482 24.9246 132.158 24.9916C133.629 24.9916 134.632 25.7957 134.833 27.2027C135.1 28.4757 134.967 29.7488 134.967 31.1558Z" fill="white"/>
<path d="M76.2447 11.4573C76.2447 13.9364 76.2447 16.2814 76.2447 18.7605C74.8402 18.7605 73.5026 18.7605 72.0312 18.7605C72.0312 12.5963 72.0312 6.43217 72.0312 0.201004C73.3688 0.201004 74.7065 0.201004 76.2447 0.201004C76.2447 0.871021 76.2447 1.60804 76.2447 2.27806C76.2447 3.8191 76.2447 5.42714 76.2447 6.96818C76.2447 7.37019 76.3116 7.7052 76.8467 7.7052C78.385 7.7052 79.9901 7.7052 81.6621 7.7052C81.6621 5.15913 81.6621 2.74707 81.6621 0.201004C83.1335 0.201004 84.4712 0.201004 85.9425 0.201004C85.9425 6.36516 85.9425 12.5293 85.9425 18.7605C84.538 18.7605 83.2004 18.7605 81.729 18.7605C81.729 16.3484 81.729 13.9364 81.729 11.4573C79.7895 11.4573 78.0505 11.4573 76.2447 11.4573Z" fill="white"/>
<path d="M82.4647 39.732C82.4647 34.7739 82.4647 29.8828 82.4647 24.9917C83.8692 24.9917 85.2737 24.9917 86.6782 24.9917C86.6782 25.3267 86.6782 25.6617 86.6782 25.9967C86.6782 30.6198 86.6782 35.1759 86.6782 39.799C86.6782 42.4121 85.4744 43.6851 82.866 43.6851C80.7258 43.6851 78.5187 43.6851 76.3785 43.6851C74.3052 43.6851 73.0344 42.5461 73.0344 40.4021C72.9675 35.4439 73.0344 30.4858 73.0344 25.4607C73.0344 25.3267 73.1013 25.1927 73.1013 24.9917C74.5058 24.9917 75.8434 24.9917 77.248 24.9917C77.248 29.9498 77.248 34.8409 77.248 39.732C79.0537 39.732 80.6589 39.732 82.4647 39.732Z" fill="white"/>
<path d="M69.891 31.4238C68.4865 31.4238 67.1489 31.4238 65.7444 31.4238C65.7444 30.5528 65.7444 29.7488 65.7444 28.8777C64.0723 28.8777 62.4672 28.8777 60.7952 28.8777C60.7952 32.4958 60.7952 36.1139 60.7952 39.732C62.4003 39.732 64.0055 39.732 65.6775 39.732C65.6775 38.526 65.6775 37.387 65.6775 36.1139C67.1489 36.1139 68.4865 36.1139 69.891 36.1139C69.891 37.789 70.0248 39.464 69.8241 41.0721C69.6235 42.6131 68.4865 43.5511 66.9482 43.5511C64.4736 43.6181 61.9321 43.6181 59.4575 43.5511C57.6517 43.4841 56.4479 42.2781 56.4479 40.402C56.381 36.1809 56.381 31.9598 56.4479 27.7387C56.4479 25.9967 57.5848 24.9246 59.3238 24.9246C61.8653 24.8576 64.4067 24.9246 66.8814 24.9246C68.6203 24.9246 69.6235 25.7957 69.8241 27.4707C69.9579 28.8107 69.891 30.0838 69.891 31.4238Z" fill="white"/>
<path d="M117.845 15.1424C117.845 16.4154 117.845 17.5545 117.845 18.7605C113.899 18.7605 110.02 18.7605 106.074 18.7605C106.074 12.5963 106.074 6.43217 106.074 0.201004C109.953 0.201004 113.899 0.201004 117.845 0.201004C117.845 1.34003 117.845 2.54606 117.845 3.8191C115.37 3.8191 112.896 3.8191 110.354 3.8191C110.354 5.09213 110.354 6.29816 110.354 7.5712C112.16 7.5712 113.966 7.5712 115.772 7.5712C115.772 8.84423 115.772 9.98326 115.772 11.1893C113.966 11.1893 112.227 11.1893 110.287 11.1893C110.287 12.3953 110.287 13.5344 110.287 14.6734C110.287 14.8074 110.756 15.0754 110.956 15.1424C112.896 15.2094 114.768 15.1424 116.708 15.1424C117.042 15.1424 117.377 15.1424 117.845 15.1424Z" fill="white"/>
<path d="M125.068 3.7521C125.068 5.09213 125.068 6.23116 125.068 7.50419C126.874 7.50419 128.68 7.50419 130.486 7.50419C130.486 8.77723 130.486 9.91626 130.486 11.1223C128.747 11.1223 126.941 11.1223 125.001 11.1223C125.001 12.3953 125.001 13.5343 125.068 14.6734C125.068 14.8074 125.536 15.0754 125.804 15.0754C128.011 15.0754 130.218 15.0754 132.559 15.0754C132.559 16.2814 132.559 17.4875 132.559 18.6935C128.68 18.6935 124.801 18.6935 120.855 18.6935C120.855 12.5293 120.855 6.36516 120.855 0.134003C124.734 0.134003 128.613 0.134003 132.626 0.134003C132.626 1.27303 132.626 2.41206 132.626 3.68509C130.151 3.7521 127.676 3.7521 125.068 3.7521Z" fill="white"/>
<path d="M118.581 25.0587C118.581 26.2647 118.581 27.4037 118.581 28.6767C116.039 28.6767 113.565 28.6767 111.023 28.6767C111.023 29.9498 111.023 31.1558 111.023 32.4288C112.829 32.4288 114.635 32.4288 116.44 32.4288C116.44 33.7019 116.44 34.8409 116.44 36.0469C114.635 36.0469 112.896 36.0469 110.956 36.0469C110.956 37.253 110.956 38.392 110.956 39.531C110.956 39.665 111.424 40 111.625 40C113.565 40.067 115.437 40 117.377 40C117.711 40 118.046 40 118.447 40C118.447 41.2061 118.447 42.3451 118.447 43.6181C114.568 43.6181 110.689 43.6181 106.676 43.6181C106.676 37.454 106.676 31.2898 106.676 25.0587C110.689 25.0587 114.568 25.0587 118.581 25.0587Z" fill="white"/>
<path d="M55.5784 0C60.1932 0 64.7411 0 69.2891 0C69.2891 1.27303 69.2891 2.47906 69.2891 3.8191C67.7508 3.8191 66.2125 3.8191 64.6074 3.8191C64.6074 8.84423 64.6074 13.7354 64.6074 18.7605C63.136 18.7605 61.7984 18.7605 60.327 18.7605C60.327 13.8024 60.327 8.84423 60.327 3.8861C58.7218 3.8861 57.1836 3.8861 55.5784 3.8861C55.5784 2.47906 55.5784 1.27303 55.5784 0Z" fill="white"/>
<path d="M39.1256 39.196H24.0104V24.0536H39.1256V39.196ZM43.4729 19.6315H19.5962V43.5511H43.4729V19.6315Z" fill="#F14B00"/>
<path d="M19.5294 39.196H4.34729V24.0536H19.4625V39.196H19.5294ZM23.8766 19.6315H0V43.5511H23.8766V19.6315Z" fill="#F14B00"/>
<path d="M39.1256 19.5645H24.0104V4.35511H39.1256V19.5645ZM43.4729 0H19.5962V23.9196H43.4729V0Z" fill="#F14B00"/>
</svg>
