<svg width="71" height="82" viewBox="0 0 71 82" fill="none" xmlns="http://www.w3.org/2000/svg">
<g clip-path="url(#clip0_77_750)">
<path d="M55.1517 17.7667C59.6531 17.7667 63.3022 14.0954 63.3022 9.5667C63.3022 5.03796 59.6531 1.3667 55.1517 1.3667C50.6503 1.3667 47.0012 5.03796 47.0012 9.5667C47.0012 14.0954 50.6503 17.7667 55.1517 17.7667Z" fill="white"/>
<path d="M47.3634 50.2933C47.3634 50.2933 42.1109 47.4689 41.2958 44.4622C40.4808 41.4556 40.5713 32.8911 40.7525 30.0667C40.9336 27.2422 41.477 24.6 43.4693 23.0511C45.4616 21.5022 47.0012 20.9556 48.5407 20.9556C50.0803 20.9556 57.8685 20.9556 59.6798 20.9556C61.491 20.9556 63.3928 20.9556 64.9323 21.8667C66.4718 22.7778 67.6492 23.9622 68.7359 26.3311C69.8226 28.7 69.6415 36.7178 69.7321 39.9067C69.8226 43.0956 69.5509 44.8267 68.7359 46.1933C67.9208 47.4689 66.653 48.6533 65.3851 49.3822C64.1173 50.1111 62.7588 50.3845 62.7588 50.3845C62.7588 50.3845 62.94 67.9689 62.94 71.5222C62.94 74.4378 60.5854 76.8067 57.6874 76.8067H52.4349C49.5369 76.8067 47.1823 74.4378 47.1823 71.5222L47.3634 50.2933Z" fill="white" stroke="#F14B00" stroke-width="3" stroke-miterlimit="10"/>
<path d="M47.3635 29.3378V50.2933" stroke="#F14B00" stroke-width="3" stroke-miterlimit="10"/>
<path d="M62.6685 29.3378V50.2933" stroke="#F14B00" stroke-width="3" stroke-miterlimit="10"/>
<path d="M55.333 52.1156V76.7156" stroke="#F14B00" stroke-width="3" stroke-miterlimit="10"/>
<path d="M15.7577 17.7667C20.2591 17.7667 23.9082 14.0954 23.9082 9.5667C23.9082 5.03796 20.2591 1.3667 15.7577 1.3667C11.2563 1.3667 7.60718 5.03796 7.60718 9.5667C7.60718 14.0954 11.2563 17.7667 15.7577 17.7667Z" fill="white"/>
<path d="M8.06003 50.2933C8.06003 50.2933 2.80748 47.4689 1.99243 44.4622C1.17738 41.4556 1.3585 32.8 1.44906 29.9756C1.63019 27.1511 2.17355 24.5089 4.1659 22.96C6.15825 21.4111 7.60723 20.9556 9.23733 20.9556C10.8674 20.9556 18.5651 20.9556 20.3764 20.9556C22.1876 20.9556 24.0894 20.9556 25.6289 21.8667C27.1685 22.7778 28.3457 23.9622 29.4325 26.3311C30.4287 28.7 30.3381 36.7178 30.4287 39.9067C30.5192 43.0956 30.2475 44.8267 29.4325 46.1933C28.6174 47.4689 27.3496 48.6533 26.0817 49.3822C24.8139 50.1111 23.4554 50.3845 23.4554 50.3845C23.4554 50.3845 23.6366 67.9689 23.6366 71.5222C23.6366 74.4378 21.282 76.8067 18.384 76.8067H13.1315C10.2335 76.8067 7.87891 74.4378 7.87891 71.5222L8.06003 50.2933Z" fill="white" stroke="#F14B00" stroke-width="3" stroke-miterlimit="10"/>
<path d="M8.06006 29.3378V50.2933" stroke="#F14B00" stroke-width="3" stroke-miterlimit="10"/>
<path d="M23.3647 29.3378V50.2933" stroke="#F14B00" stroke-width="3" stroke-miterlimit="10"/>
<path d="M15.9387 52.1156V76.7156" stroke="#F14B00" stroke-width="3" stroke-miterlimit="10"/>
<path d="M35.319 21.7756C39.8204 21.7756 43.4695 18.1043 43.4695 13.5756C43.4695 9.04688 39.8204 5.37561 35.319 5.37561C30.8176 5.37561 27.1685 9.04688 27.1685 13.5756C27.1685 18.1043 30.8176 21.7756 35.319 21.7756Z" fill="white"/>
<path d="M27.5306 54.3022C27.5306 54.3022 22.278 51.4777 21.463 48.4711C20.6479 45.4644 20.8291 36.8088 21.0102 33.9844C21.1913 31.16 21.7347 28.5177 23.727 26.9688C25.7194 25.42 27.2589 24.8733 28.7984 24.8733C30.338 24.8733 38.1262 24.8733 39.9375 24.8733C41.7487 24.8733 43.6505 24.8733 45.19 25.7844C46.7296 26.6955 47.9069 27.88 48.9936 30.2488C49.9898 32.6177 49.8992 40.6355 49.9898 43.8244C50.0803 47.0133 49.8086 48.7444 48.9936 50.1111C48.1785 51.3866 46.9107 52.5711 45.6428 53.3C44.375 54.0288 43.0166 54.3022 43.0166 54.3022C43.0166 54.3022 43.1977 71.8866 43.1977 75.44C43.1977 78.3555 40.8431 80.7244 37.9451 80.7244H32.6926C29.7946 80.7244 27.44 78.3555 27.44 75.44L27.5306 54.3022Z" fill="white" stroke="#F14B00" stroke-width="3" stroke-miterlimit="10"/>
<path d="M27.5305 33.2556V54.3023" stroke="#F14B00" stroke-width="3" stroke-miterlimit="10"/>
<path d="M42.8354 33.2556V54.3023" stroke="#F14B00" stroke-width="3" stroke-miterlimit="10"/>
<path d="M35.5 56.0333V80.6333" stroke="#F14B00" stroke-width="3" stroke-miterlimit="10"/>
</g>
<defs>
<clipPath id="clip0_77_750">
<rect width="71" height="82" fill="white"/>
</clipPath>
</defs>
</svg>
