<svg width="30" height="29" viewBox="0 0 30 29" fill="none" xmlns="http://www.w3.org/2000/svg">
<g clip-path="url(#clip0_55_264)">
<path d="M25.4543 27.1789C22.6468 28.5304 19.1587 28.5304 13.3736 24.7295C7.58846 20.9287 3.50483 16.4522 1.54809 10.7931C-0.408648 5.13412 3.33468 2.34684 5.54664 1.24882C7.75861 0.150801 9.71535 2.93808 10.7363 4.7118C11.7572 6.48552 13.0333 8.09032 11.2467 9.01941C9.46012 9.9485 6.90785 10.033 7.84369 12.5669C8.77952 15.1007 11.7572 17.7191 13.8841 19.3239C16.0109 20.9287 17.7975 22.1112 19.0737 20.7598C20.3498 19.4928 20.4349 16.7055 22.3065 16.9589C24.1782 17.2123 27.4962 19.9996 28.432 21.0976C29.3678 22.1956 29.1126 23.3781 27.9215 24.814C26.7305 26.4188 26.22 26.8411 25.4543 27.1789Z" stroke="#F14B00" stroke-width="2" stroke-miterlimit="10"/>
</g>
<defs>
<clipPath id="clip0_55_264">
<rect width="30" height="29" fill="white"/>
</clipPath>
</defs>
</svg>
