<svg width="87" height="77" viewBox="0 0 87 77" fill="none" xmlns="http://www.w3.org/2000/svg">
<g clip-path="url(#clip0_55_406)">
<path d="M43.9833 25.025C50.1229 25.025 55.1 20.0693 55.1 13.9562C55.1 7.8431 50.1229 2.88745 43.9833 2.88745C37.8438 2.88745 32.8667 7.8431 32.8667 13.9562C32.8667 20.0693 37.8438 25.025 43.9833 25.025Z" fill="white"/>
<path d="M21.712 63.2216C21.712 63.2216 14.6143 58.869 9.61361 54.6776C4.61295 50.4863 4.29033 48.713 2.99984 45.4082C1.70935 42.1035 1.95132 38.6376 1.95132 38.6376H9.53295C9.53295 38.6376 10.9041 35.9776 12.4366 34.6074C13.969 33.2371 15.9854 30.9802 15.9854 30.9802C15.9854 30.9802 13.0818 25.5798 12.2752 24.2095C11.388 22.8393 12.0333 21.1466 16.2274 21.7914C20.3408 22.4363 22.8411 24.1289 24.2929 25.1768C25.7447 26.2246 25.7447 26.2246 25.7447 26.2246C25.7447 26.2246 29.0516 22.3557 34.5362 21.6302C40.1015 20.9048 50.1028 20.7436 57.765 23.4841C65.4273 26.2246 69.7827 31.1414 72.3637 35.091C74.9447 39.0406 74.7834 47.0203 73.6542 51.2923C72.4444 55.5643 66.3952 63.3022 66.3952 63.3022L65.9919 76.0375H58.9749L56.9585 66.7682C56.9585 66.7682 53.7323 69.1057 49.1349 69.6699C44.5375 70.2341 39.6982 70.0729 36.7946 69.1057C33.891 68.1384 31.2293 67.0906 31.2293 67.0906L28.8097 76.0375H22.1959L21.712 63.2216Z" fill="#F14B00" stroke="white" stroke-width="3" stroke-miterlimit="10"/>
<path d="M85.8627 41.3489C85.8627 41.3489 84.6443 44.4419 83.1008 44.7675C81.4762 45.0931 80.7451 42.4884 78.7955 41.8373C76.8459 41.1861 74.2465 43.7907 74.2465 43.7907" stroke="white" stroke-width="3" stroke-miterlimit="10"/>
<path d="M44.7591 27.9186C44.7591 27.9186 51.2577 27.3488 57.8375 31.0116C64.4174 34.6744 66.5294 44.7674 66.5294 44.7674" stroke="white" stroke-width="3" stroke-miterlimit="10" stroke-linecap="round"/>
<path d="M20.2269 41.8372C21.6625 41.8372 22.8263 40.6711 22.8263 39.2326C22.8263 37.7941 21.6625 36.6279 20.2269 36.6279C18.7912 36.6279 17.6274 37.7941 17.6274 39.2326C17.6274 40.6711 18.7912 41.8372 20.2269 41.8372Z" fill="white"/>
</g>
<defs>
<clipPath id="clip0_55_406">
<rect width="87" height="77" fill="white"/>
</clipPath>
</defs>
</svg>
