<svg width="86" height="83" viewBox="0 0 86 83" fill="none" xmlns="http://www.w3.org/2000/svg">
<path d="M41.7228 64.3673C53.9496 64.3673 63.8614 54.6981 63.8614 42.7704C63.8614 30.8427 53.9496 21.1735 41.7228 21.1735C29.496 21.1735 19.5842 30.8427 19.5842 42.7704C19.5842 54.6981 29.496 64.3673 41.7228 64.3673Z" stroke="white" stroke-width="3" stroke-miterlimit="10"/>
<path d="M19.8726 45.7751C19.8726 45.7751 6.9825 55.8298 4.4045 58.9285C1.82649 62.0271 -0.171472 69.4259 13.6853 64.3037C27.5421 59.1814 43.3969 51.087 55.9647 43.4353C68.5325 35.7835 77.4911 27.8156 80.2624 24.211C83.0338 20.6065 81.6803 17.002 78.1356 16.9387C74.5264 16.9387 65.4389 21.5551 55.7069 26.2979" stroke="white" stroke-width="3" stroke-miterlimit="10"/>
<path d="M28.099 38.1122C28.099 38.1122 29.4878 33.913 33.3236 31.1744C36.6965 28.7401 41.7228 27.949 41.7228 27.949" stroke="white" stroke-width="3" stroke-miterlimit="10" stroke-linecap="round"/>
<path d="M29.802 49.9693C29.802 49.9693 29.2911 48.8534 28.7802 47.2492C28.2693 45.645 28.099 44.0408 28.099 44.0408" stroke="white" stroke-width="3" stroke-miterlimit="10" stroke-linecap="round"/>
<path d="M11.8526 22.5684C16.8382 22.5684 20.8798 18.5815 20.8798 13.6634C20.8798 8.74533 16.8382 4.75842 11.8526 4.75842C6.86695 4.75842 2.82532 8.74533 2.82532 13.6634C2.82532 18.5815 6.86695 22.5684 11.8526 22.5684Z" fill="white"/>
<path d="M56.853 15.5924C60.5066 15.5924 63.4684 12.6707 63.4684 9.06657C63.4684 5.46247 60.5066 2.54077 56.853 2.54077C53.1994 2.54077 50.2376 5.46247 50.2376 9.06657C50.2376 12.6707 53.1994 15.5924 56.853 15.5924Z" fill="white"/>
<path d="M25.6154 81.0516C29.269 81.0516 32.2308 78.1299 32.2308 74.5258C32.2308 70.9217 29.269 68 25.6154 68C21.9618 68 19 70.9217 19 74.5258C19 78.1299 21.9618 81.0516 25.6154 81.0516Z" fill="white"/>
</svg>
