<svg width="117" height="82" viewBox="0 0 117 82" fill="none" xmlns="http://www.w3.org/2000/svg">
<g clip-path="url(#clip0_55_122)">
<path d="M41.5736 39.3838H6.53299V80.724H41.5736V39.3838Z" stroke="#F14B00" stroke-width="3" stroke-miterlimit="10"/>
<path d="M110.976 39.3838H75.9355V80.724H110.976V39.3838Z" stroke="#F14B00" stroke-width="3" stroke-miterlimit="10"/>
<path d="M110.552 39.3838H114.794L106.564 25.0083H9.75708L2.12111 39.3838H110.552Z" stroke="#F14B00" stroke-width="3" stroke-miterlimit="10"/>
<path d="M20.7868 49.166H12.8963V57.332H20.7868V49.166Z" stroke="#F14B00" stroke-width="3" stroke-miterlimit="10"/>
<path d="M35.1255 49.166H27.235V57.332H35.1255V49.166Z" stroke="#F14B00" stroke-width="3" stroke-miterlimit="10"/>
<path d="M35.1255 63.2012H27.235V71.3671H35.1255V63.2012Z" stroke="#F14B00" stroke-width="3" stroke-miterlimit="10"/>
<path d="M20.5323 63.2012H12.6418V71.3671H20.5323V63.2012Z" stroke="#F14B00" stroke-width="3" stroke-miterlimit="10"/>
<path d="M90.359 49.166H82.4685V57.332H90.359V49.166Z" stroke="#F14B00" stroke-width="3" stroke-miterlimit="10"/>
<path d="M104.698 49.166H96.8071V57.332H104.698V49.166Z" stroke="#F14B00" stroke-width="3" stroke-miterlimit="10"/>
<path d="M104.698 63.2012H96.8071V71.3671H104.698V63.2012Z" stroke="#F14B00" stroke-width="3" stroke-miterlimit="10"/>
<path d="M90.1044 63.2012H82.2139V71.3671H90.1044V63.2012Z" stroke="#F14B00" stroke-width="3" stroke-miterlimit="10"/>
<path d="M58.7121 18.7137V0" stroke="#F14B00" stroke-width="3" stroke-miterlimit="10"/>
<path d="M74.0689 2.12665C74.0689 2.12665 71.3539 0.935778 67.1965 2.72208C62.9543 4.50839 58.797 2.21171 58.797 2.21171V13.0997C58.797 13.0997 63.3785 14.7159 66.2632 13.6951C69.1479 12.6744 70.2509 12.164 72.2023 12.2491C74.2386 12.3341 74.2386 12.3341 74.2386 12.3341L74.0689 2.12665Z" stroke="#F14B00" stroke-width="3" stroke-miterlimit="10"/>
<path d="M41.5736 80.724H75.9355V32.5788L58.7121 18.7136L41.5736 32.3236V80.724Z" fill="white" stroke="#F14B00" stroke-width="3" stroke-miterlimit="10"/>
<path d="M65.5845 80.7241V67.1992C65.5845 63.2013 62.3604 60.054 58.4576 60.054C54.4699 60.054 51.3307 63.2863 51.3307 67.1992V80.7241H65.5845Z" stroke="#F14B00" stroke-width="3" stroke-miterlimit="10"/>
<path d="M58.7121 46.8692C62.1796 46.8692 64.9906 44.0511 64.9906 40.5746C64.9906 37.0982 62.1796 34.28 58.7121 34.28C55.2446 34.28 52.4337 37.0982 52.4337 40.5746C52.4337 44.0511 55.2446 46.8692 58.7121 46.8692Z" stroke="#F14B00" stroke-width="3" stroke-miterlimit="10"/>
</g>
<defs>
<clipPath id="clip0_55_122">
<rect width="117" height="82" fill="white"/>
</clipPath>
</defs>
</svg>
