<svg width="65" height="83" viewBox="0 0 65 83" fill="none" xmlns="http://www.w3.org/2000/svg">
<path d="M61.7987 38.3543C61.3182 53.2517 58.1951 60.0899 54.9118 63.5904C51.6286 67.0909 32.4897 80.2788 32.4897 80.2788C32.4897 80.2788 13.4308 67.1723 10.1476 63.6718C6.86433 60.1713 3.74125 53.2517 3.26077 38.4357C2.70022 23.4568 1.89942 16.1302 4.7022 14.7463C7.50497 13.4438 11.2687 15.0719 15.7531 14.0951C20.2376 13.1182 26.6439 8.72222 28.2455 6.93127C29.9271 5.05891 32.4897 4.08203 32.4897 4.08203C32.4897 4.08203 35.1323 5.05891 36.8139 6.93127C38.4155 8.80362 44.9019 13.1182 49.3063 14.0951C53.7107 15.0719 57.5545 13.4438 60.3572 14.7463C63.0799 16.1302 62.2791 23.4568 61.7987 38.3543Z" stroke="white" stroke-width="3" stroke-miterlimit="10"/>
<path d="M32.5 55.7869C39.9789 55.7869 46.0417 49.3904 46.0417 41.5C46.0417 33.6096 39.9789 27.2131 32.5 27.2131C25.0212 27.2131 18.9583 33.6096 18.9583 41.5C18.9583 49.3904 25.0212 55.7869 32.5 55.7869Z" fill="white"/>
<path d="M25.7292 41.6739L30.3183 46.2624L37.9167 36.7378" stroke="#F14B00" stroke-width="3" stroke-miterlimit="10" stroke-linecap="round"/>
</svg>
